<?xml version="1.0" encoding="UTF-8" standalone="no"?>
<svg width="32px" height="32px" viewBox="0 0 32 32" version="1.1" xmlns="http://www.w3.org/2000/svg" xmlns:xlink="http://www.w3.org/1999/xlink" xmlns:sketch="http://www.bohemiancoding.com/sketch/ns">
    <!-- Generator: Sketch 3.5.1 (25234) - http://www.bohemiancoding.com/sketch -->
    <title>facebook_L Copy</title>
    <desc>Created with Sketch.</desc>
    <defs></defs>
    <g id="Page-1" stroke="none" stroke-width="1" fill="none" fill-rule="evenodd" sketch:type="MSPage">
        <path d="M16,32 C24.8365564,32 32,24.8365564 32,16 C32,7.16344357 24.8365564,0 16,0 C7.16344357,0 0,7.16344357 0,16 C0,24.8365564 7.16344357,32 16,32 Z M16,30.72 C24.1296319,30.72 30.72,24.1296319 30.72,16 C30.72,7.87036808 24.1296319,1.28 16,1.28 C7.87036808,1.28 1.28,7.87036808 1.28,16 C1.28,24.1296319 7.87036808,30.72 16,30.72 Z M17.92512,5.67168 C17.25312,5.67168 16.608,5.75232 15.85536,6.048 C14.3232,6.66624 13.54368,8.11776 13.54368,10.37568 L13.54368,12.57984 L11.39328,12.57984 L11.39328,16.2624 L13.54368,16.2624 L13.54368,26.88 L17.92512,26.88 L17.92512,16.2624 L20.9088,16.2624 L21.312,12.57984 L17.92512,12.57984 L17.92512,10.91328 C17.92512,10.40256 17.97888,10.02624 18.11328,9.8112 C18.30144,9.48864 18.67776,9.32736 19.26912,9.32736 L21.25824,9.32736 L21.25824,5.67168 L17.92512,5.67168 Z" id="facebook_L-Copy" fill="#F16464" sketch:type="MSShapeGroup"></path>
    </g>
</svg>