<?xml version="1.0" encoding="UTF-8" standalone="no"?>
<svg width="32px" height="32px" viewBox="0 0 32 32" version="1.1" xmlns="http://www.w3.org/2000/svg" xmlns:xlink="http://www.w3.org/1999/xlink" xmlns:sketch="http://www.bohemiancoding.com/sketch/ns">
    <!-- Generator: Sketch 3.5.1 (25234) - http://www.bohemiancoding.com/sketch -->
    <title>pinterest_L</title>
    <desc>Created with Sketch.</desc>
    <defs></defs>
    <g id="Page-1" stroke="none" stroke-width="1" fill="none" fill-rule="evenodd" sketch:type="MSPage">
        <path d="M16,32 C24.8365564,32 32,24.8365564 32,16 C32,7.16344357 24.8365564,0 16,0 C7.16344357,0 0,7.16344357 0,16 C0,24.8365564 7.16344357,32 16,32 Z M16,30.72 C24.1296319,30.72 30.72,24.1296319 30.72,16 C30.72,7.87036808 24.1296319,1.28 16,1.28 C7.87036808,1.28 1.28,7.87036808 1.28,16 C1.28,24.1296319 7.87036808,30.72 16,30.72 Z M8.32,13.2620463 C8.32,15.3284716 9.10097067,17.1659116 10.7749547,17.8506442 C11.04896,17.9629137 11.2963413,17.8550905 11.375104,17.5494063 C11.4305707,17.3393179 11.561472,16.8068716 11.6202667,16.5856674 C11.7001387,16.2855411 11.6690773,16.1788295 11.4472107,15.9176084 C10.9646507,15.3462568 10.656256,14.6081684 10.656256,13.5610611 C10.656256,10.5264505 12.9215147,7.80975158 16.5579093,7.80975158 C19.7760853,7.80975158 21.5443627,9.78058105 21.5443627,12.4116884 C21.5443627,15.8742568 20.0157013,18.7977095 17.744896,18.7977095 C16.49024,18.7977095 15.551744,17.7583832 15.8534827,16.4834021 C16.2129067,14.9627621 16.9106773,13.32096 16.9106773,12.2216084 C16.9106773,11.2400842 16.383744,10.4186274 15.2943787,10.4186274 C14.0130987,10.4186274 12.982528,11.7491874 12.982528,13.5277137 C12.982528,14.6615242 13.365248,15.4285137 13.365248,15.4285137 C13.365248,15.4285137 12.0529067,20.9975242 11.8232747,21.9734905 C11.36512,23.9154189 11.754496,26.2964211 11.787776,26.5365221 C11.807744,26.6788042 11.9896747,26.7121516 12.0728747,26.60544 C12.190464,26.4509305 13.7169067,24.5623579 14.2360747,22.6760084 C14.383616,22.1413389 15.0802773,19.3735074 15.0802773,19.3735074 C15.4962773,20.1693979 16.7121067,20.8719158 18.0066987,20.8719158 C21.8605227,20.8719158 24.474112,17.3515453 24.474112,12.6395621 C24.474112,9.07695158 21.4633813,5.76 16.886272,5.76 C11.192064,5.76 8.32,9.85172211 8.32,13.2620463 Z" id="pinterest_L" fill="#F16464" sketch:type="MSShapeGroup"></path>
    </g>
</svg>