<?xml version="1.0" encoding="UTF-8" standalone="no"?>
<svg width="32px" height="32px" viewBox="0 0 32 32" version="1.1" xmlns="http://www.w3.org/2000/svg" xmlns:xlink="http://www.w3.org/1999/xlink" xmlns:sketch="http://www.bohemiancoding.com/sketch/ns">
    <!-- Generator: Sketch 3.5.1 (25234) - http://www.bohemiancoding.com/sketch -->
    <title>twitter_L Copy</title>
    <desc>Created with Sketch.</desc>
    <defs></defs>
    <g id="Page-1" stroke="none" stroke-width="1" fill="none" fill-rule="evenodd" sketch:type="MSPage">
        <path d="M16,32 C24.8365564,32 32,24.8365564 32,16 C32,7.16344357 24.8365564,0 16,0 C7.16344357,0 0,7.16344357 0,16 C0,24.8365564 7.16344357,32 16,32 Z M16,30.72 C24.1296319,30.72 30.72,24.1296319 30.72,16 C30.72,7.87036808 24.1296319,1.28 16,1.28 C7.87036808,1.28 1.28,7.87036808 1.28,16 C1.28,24.1296319 7.87036808,30.72 16,30.72 Z M11.2967183,11.9020202 C14.3729844,13.4550866 16.9727839,13.3654866 16.9727839,13.3654866 C16.9727839,13.3654866 15.9871839,9.93082029 19.0335836,8.40762082 C22.079983,6.8844211 24.1763435,9.45248651 24.1763435,9.45248651 C24.1763435,9.45248651 24.7076487,9.30663804 25.1035231,9.16078958 C25.4993975,9.01494111 26.0723736,8.75449741 26.0723736,8.75449741 L25.1336383,10.430087 L26.5791485,10.2768626 C26.5791485,10.2768626 26.4009854,10.5373582 25.8224683,11.0679374 C25.2439511,11.5985166 25.0055158,11.8726202 25.0055158,11.8726202 C25.0055158,11.8726202 25.2121776,16.0069239 23.0343161,19.1899522 C20.8564543,22.3729803 18.0425296,24.2833511 13.9548512,24.6854178 C9.86717272,25.0874845 7.20498574,23.431018 7.20498574,23.431018 C7.20498574,23.431018 8.99272952,23.3289905 10.1319185,22.8934181 C11.2711076,22.4578458 12.909518,21.3104851 12.909518,21.3104851 C12.909518,21.3104851 10.5799184,20.5936852 9.74365194,19.7872854 C8.90738543,18.9808855 8.6983188,18.5030189 8.6983188,18.5030189 L10.9980517,18.4731523 C10.9980517,18.4731523 8.57885215,17.1888859 7.89191895,16.1734194 C7.20498567,15.1579529 7.11538576,14.1723531 7.11538576,14.1723531 L8.88344124,14.8863266 C8.88344124,14.8863266 7.41405247,12.8880866 7.20498574,11.3350203 C6.99591911,9.7819539 7.47378569,8.94568739 7.47378569,8.94568739 C7.47378569,8.94568739 8.22045223,10.3489538 11.2967183,11.9020202 Z" id="twitter_L-Copy" fill="#F16464" sketch:type="MSShapeGroup"></path>
    </g>
</svg>